# xmcd CD database file
#
# Track frame offsets:
#	150
#	20640
#	40557
#	65572
#	85904
#	106197
#	123209
#	138384
#	158959
#	210379
#	222416
#	232091
#
# Disc length: 3358 seconds
#
# Revision: 0
# Processed by: cddbd v1.5.2PL0 Copyright (c) Steve Scherf et al.
# Submitted via: CDex 1.70beta2
#
DISCID=a30d1c0c
DTITLE=Chico Trujillo - y la senora imaginacion
DYEAR=2003
DGENRE=Merengue
TTITLE0=el electrico
TTITLE1=tus tresos son
TTITLE2=y si no fuera
TTITLE3=el tren
TTITLE4=a mi negra
TTITLE5=cumbia acida
TTITLE6=me convertiste en santo
TTITLE7=ay carino
TTITLE8=loco, loco - daniela
TTITLE9=maria, ria (studiomix)
TTITLE10=me convertise en santo (studiomix)
TTITLE11=cabildo (studiomix)
EXTD=YEAR: 2003
EXTT0=
EXTT1=
EXTT2=
EXTT3=
EXTT4=
EXTT5=
EXTT6=
EXTT7=
EXTT8=
EXTT9=
EXTT10=
EXTT11=
PLAYORDER=
